<svg xmlns="http://www.w3.org/2000/svg" viewBox="0 0 97.43 97.43"><defs><style>.cls-1{fill:#fff;}</style></defs><g id="Layer_2" data-name="Layer 2"><g id="Layer_1-2" data-name="Layer 1"><path d="M97.43,48.71A48.72,48.72,0,1,1,48.71,0,48.72,48.72,0,0,1,97.43,48.71Z"/><path class="cls-1" d="M54.22,35.38A14.13,14.13,0,0,1,68.35,21.26h0A14.13,14.13,0,0,1,82.48,35.38h0A14.13,14.13,0,0,1,68.35,49.51h0A14.13,14.13,0,0,1,54.22,35.38Zm2.44,0A11.7,11.7,0,0,0,68.35,47.07h0A11.7,11.7,0,0,0,80,35.38h0A11.7,11.7,0,0,0,68.35,23.69h0A11.7,11.7,0,0,0,56.66,35.38Z"/><path class="cls-1" d="M73.22,35.38a4.87,4.87,0,1,1-4.87-4.87A4.87,4.87,0,0,1,73.22,35.38Z"/><path class="cls-1" d="M15,35.38A14.13,14.13,0,0,1,29.08,21.26h0A14.13,14.13,0,0,1,43.21,35.38h0A14.13,14.13,0,0,1,29.08,49.51h0A14.13,14.13,0,0,1,15,35.38Zm2.44,0A11.7,11.7,0,0,0,29.08,47.07h0A11.7,11.7,0,0,0,40.77,35.38h0A11.7,11.7,0,0,0,29.08,23.69h0A11.7,11.7,0,0,0,17.39,35.38Z"/><path class="cls-1" d="M34,35.38a4.87,4.87,0,1,1-4.87-4.87A4.87,4.87,0,0,1,34,35.38Z"/><path class="cls-1" d="M77.94,61.33c0,13.56-13.08,24.55-29.23,24.55s-29.22-11-29.22-24.55Z"/><path d="M22,66.53H75.46a18.93,18.93,0,0,0,.65-3.45H21.32A18.93,18.93,0,0,0,22,66.53Z"/></g></g></svg>