<svg xmlns="http://www.w3.org/2000/svg" viewBox="0 0 97.43 97.43"><defs><style>.cls-1{fill:#fff;}</style></defs><g id="Layer_2" data-name="Layer 2"><g id="Layer_1-2" data-name="Layer 1"><path d="M97.43,48.71A48.72,48.72,0,1,1,48.71,0,48.72,48.72,0,0,1,97.43,48.71Z"/><path class="cls-1" d="M31.39,44.8A5.81,5.81,0,1,1,25.58,39,5.81,5.81,0,0,1,31.39,44.8Z"/><path d="M26.93,41.21a1.36,1.36,0,1,1-1.35-1.35A1.35,1.35,0,0,1,26.93,41.21Z"/><path class="cls-1" d="M77.66,44.8A5.81,5.81,0,1,1,71.85,39,5.81,5.81,0,0,1,77.66,44.8Z"/><path d="M73.21,41.21a1.36,1.36,0,1,1-1.36-1.35A1.36,1.36,0,0,1,73.21,41.21Z"/><path class="cls-1" d="M19.46,82.49a10.32,10.32,0,0,1-2.9-.42h0A10.54,10.54,0,0,1,12,79.38h0l.86-.86-.86.86A10.61,10.61,0,0,1,9.6,75.56h0A10.62,10.62,0,0,1,9,72H9v-.08H9c0-4,2-8.7,4-12.81h0c1-2,2-3.79,2.95-5.3h0c.93-1.54,1.72-2.75,2.19-3.46h0l.47-.68h0l1-1.42,1,1.47s.34.5.79,1.19h0c.47.72,1.1,1.72,1.81,2.92h0c.9,1.52,1.93,3.35,2.91,5.33h0c2,4.12,3.91,8.81,3.93,12.83h0v0h0a10.43,10.43,0,0,1-.66,3.63h0a10.49,10.49,0,0,1-2.45,3.81h0a10.62,10.62,0,0,1-4,2.5h0a10.51,10.51,0,0,1-3.38.56h0Zm-2.22-2.76a7.74,7.74,0,0,0,2.22.32h0a8.36,8.36,0,0,0,2.62-.42h0a8.17,8.17,0,0,0,3.1-1.93h0a8,8,0,0,0,1.89-2.93h0A8.32,8.32,0,0,0,27.6,72h0v0h0c0-3.25-1.7-7.8-3.68-11.76h0C23,58.28,22,56.5,21.1,55h0c-.59-1-1.11-1.83-1.54-2.49h0c-.42.66-1,1.5-1.54,2.48h0c-.89,1.47-1.9,3.24-2.86,5.14h0c-2,4-3.76,8.52-3.75,11.77h0v0a8,8,0,0,0,.48,2.77h0a8,8,0,0,0,1.87,2.94h0a8.12,8.12,0,0,0,3.48,2.07Z"/><path class="cls-1" d="M40.57,12c-3.91-1.75-9.45,8.72-24.2,11.25a35.6,35.6,0,0,0,14-2.59C37.51,18,41.81,13.26,40.57,12Z"/><path class="cls-1" d="M56.86,12c3.91-1.75,9.45,8.72,24.19,11.25a35.57,35.57,0,0,1-14-2.59C59.91,18,55.62,13.26,56.86,12Z"/><path class="cls-1" d="M48.92,71c-10.08,0-16.67,7.16-16.21,9,1,.87,7.45-2.83,16-2.83h0c8.55,0,15,3.7,16,2.83C65.11,78.11,58.87,71,48.92,71Z"/></g></g></svg>