<svg xmlns="http://www.w3.org/2000/svg" viewBox="0 0 97.43 97.43"><defs><style>.cls-1{fill:#fff;}</style></defs><g id="Layer_2" data-name="Layer 2"><g id="Layer_1-2" data-name="Layer 1"><path d="M97.43,48.71A48.72,48.72,0,1,1,48.71,0,48.72,48.72,0,0,1,97.43,48.71Z"/><path class="cls-1" d="M29.85,35.31c-.64,0-3.13,3.31-8.69,5.42-5.36,2-10.21,1.43-10.58,2.06.31,1.45,5.83,1.91,11.4,0A13,13,0,0,0,29.85,35.31Z"/><path class="cls-1" d="M67.58,35.31c.64,0,3.13,3.31,8.69,5.42,5.36,2,10.21,1.43,10.58,2.06-.31,1.45-5.83,1.91-11.4,0A13,13,0,0,1,67.58,35.31Z"/><path class="cls-1" d="M39.86,54.45c-.88-.1-4.73,4.64-11.2,4.73-6.77.1-9.12-3.59-11.29-3.61-.42.55,1.57,8.72,10.43,9C36.35,64.76,40.49,56.5,39.86,54.45Z"/><path class="cls-1" d="M57.57,54.45c.88-.1,4.73,4.64,11.2,4.73,6.77.1,9.12-3.59,11.29-3.61.41.55-1.57,8.72-10.43,9C61.08,64.76,56.94,56.5,57.57,54.45Z"/><path class="cls-1" d="M40.19,83.15a2.44,2.44,0,0,1-2.44-2.44h0a2.43,2.43,0,0,1,2.44-2.43H57.24a2.44,2.44,0,0,1,2.44,2.43h0a2.44,2.44,0,0,1-2.44,2.44H40.19Z"/></g></g></svg>