<svg xmlns="http://www.w3.org/2000/svg" viewBox="0 0 97.43 108.68"><defs><style>.cls-1{fill:#fff;}</style></defs><g id="Layer_2" data-name="Layer 2"><g id="Layer_1-2" data-name="Layer 1"><path d="M95.89,36.62A48.7,48.7,0,1,1,36.62,1.54,48.7,48.7,0,0,1,95.89,36.62Z"/><path class="cls-1" d="M16.31,48.75a17,17,0,0,1-.88-5.36h0A16.91,16.91,0,0,1,27,27.38h0a17,17,0,0,1,5.36-.88h0A16.91,16.91,0,0,1,48.33,38h0l-.47.15-.46.16A15.91,15.91,0,0,0,32.32,27.48h0a16.22,16.22,0,0,0-5.05.82h0A15.91,15.91,0,0,0,16.41,43.39h0a16,16,0,0,0,.83,5h0A15.91,15.91,0,0,0,32.32,59.3h0a16,16,0,0,0,5-.83h0A15.92,15.92,0,0,0,48.23,43.39h0a16,16,0,0,0-.83-5h0l.46-.16.47-.15a17,17,0,0,1,.87,5.36h0a16.9,16.9,0,0,1-11.52,16h0a17,17,0,0,1-5.36.87h0a16.9,16.9,0,0,1-16-11.52Z"/><path class="cls-1" d="M38.19,41.42a6.19,6.19,0,1,1-7.84-3.9A6.19,6.19,0,0,1,38.19,41.42Z"/><path d="M32.48,39.31a1.45,1.45,0,1,1-1.83-.91A1.45,1.45,0,0,1,32.48,39.31Z"/><path class="cls-1" d="M61.09,42.81a8.62,8.62,0,0,1-.45-2.76h0a8.71,8.71,0,0,1,5.93-8.25h0a8.9,8.9,0,0,1,2.76-.45h0a8.7,8.7,0,0,1,8.25,5.94h0l-.46.15.46-.15A8.86,8.86,0,0,1,78,40.05h0a8.71,8.71,0,0,1-5.94,8.25h0a8.8,8.8,0,0,1-2.76.44h0a8.68,8.68,0,0,1-8.24-5.93Zm5.79-10.08a7.72,7.72,0,0,0-5.27,7.32h0A7.8,7.8,0,0,0,62,42.5h0a7.73,7.73,0,0,0,7.32,5.27h0a7.76,7.76,0,0,0,2.45-.4h0a7.72,7.72,0,0,0,5.27-7.32h0a7.48,7.48,0,0,0-.4-2.45h0a7.72,7.72,0,0,0-7.32-5.27h0a7.53,7.53,0,0,0-2.45.4Z"/><path class="cls-1" d="M72.27,39.07a3.09,3.09,0,1,1-3.92-2A3.1,3.1,0,0,1,72.27,39.07Z"/><path d="M69.41,38a.71.71,0,0,1-.45.91.72.72,0,0,1-.92-.45.74.74,0,0,1,.46-.92A.72.72,0,0,1,69.41,38Z"/><path class="cls-1" d="M52.79,64.27A167.35,167.35,0,0,1,18.59,69c7.63,15.83,23.94,22.17,40.05,18.11S86,69.49,85,52A167.22,167.22,0,0,1,52.79,64.27Z"/><path d="M54.8,72.1A168.74,168.74,0,0,0,82.63,62a33.52,33.52,0,0,0,1-7.57A170.41,170.41,0,0,1,53.17,65.74,169.78,169.78,0,0,1,21,70.41a34,34,0,0,0,4.47,6.18A167.64,167.64,0,0,0,54.8,72.1Z"/><path d="M34.7,103a11,11,0,0,0,3.63,2.69,13.82,13.82,0,0,0,6,1.26,14.32,14.32,0,0,0,5.34-1,11.08,11.08,0,0,0,4.14-3,14.48,14.48,0,0,0,2.27-3.54,30.12,30.12,0,0,0,2.24-8.19c.62-4.24,0-9.29-.3-13.26a61.22,61.22,0,0,1-6.58.95c-2.54.19-4.73.34-7.1.34-2.88,0-5.7-.09-8.56-.36a34.14,34.14,0,0,1-5.26-1c-.33,4-1,9.09-.35,13.33a29.52,29.52,0,0,0,2.24,8.19A14.45,14.45,0,0,0,34.7,103Z"/><path class="cls-1" d="M44.27,98.91c.29,0,.86-7.64,1-19.58H43.31C43.42,91.27,44,98.91,44.27,98.91Z"/><path class="cls-1" d="M44.21,108.68a15.6,15.6,0,0,1-6.61-1.41h0a12.8,12.8,0,0,1-4.17-3.11h0a16.35,16.35,0,0,1-2.54-4h0a31.39,31.39,0,0,1-2.38-8.66h0a28.94,28.94,0,0,1-.28-4.28h0c0-3.33.4-6.71.62-9.44h0a1.71,1.71,0,0,1,.72-1.25h0A1.73,1.73,0,0,1,31,76.33h0a31.35,31.35,0,0,0,5,.94h0c2.77.27,5.51.36,8.34.36h0c2.29,0,4.43-.15,7-.34h0a57.59,57.59,0,0,0,6.4-.93h0a1.72,1.72,0,0,1,1.34.33h0a1.68,1.68,0,0,1,.66,1.21h0c.22,2.69.58,6,.58,9.2h0A29.8,29.8,0,0,1,60,91.55h0a31.39,31.39,0,0,1-2.38,8.66h0a16.07,16.07,0,0,1-2.53,3.94h0a12.77,12.77,0,0,1-4.77,3.41h0a15.75,15.75,0,0,1-6,1.12h-.13Zm.14-3.41a12.4,12.4,0,0,0,4.7-.86h0a9.37,9.37,0,0,0,3.52-2.51h0a12.78,12.78,0,0,0,2-3.13h0a28,28,0,0,0,2.1-7.72h0a27.53,27.53,0,0,0,.25-4h0c0-2.33-.2-4.78-.4-7h0c-1.36.24-2.94.48-4.9.64h0c-2.54.19-4.77.34-7.19.35h-.11c-2.89,0-5.75-.1-8.66-.38h-.06c-1.49-.2-2.54-.36-3.52-.56h0c-.21,2.3-.43,4.8-.43,7.17h0a26.7,26.7,0,0,0,.24,3.78h0A28.35,28.35,0,0,0,34,98.77h0a12.85,12.85,0,0,0,2,3.12h0L34.7,103,36,101.9a9.37,9.37,0,0,0,3.07,2.28h0a12.14,12.14,0,0,0,5.16,1.09h.14Z"/></g></g></svg>