<svg xmlns="http://www.w3.org/2000/svg" viewBox="0 0 97.43 97.43"><defs><style>.cls-1{fill:#fff;}</style></defs><g id="Layer_2" data-name="Layer 2"><g id="Layer_1-2" data-name="Layer 1"><path d="M97.43,48.71A48.72,48.72,0,1,1,48.71,0,48.72,48.72,0,0,1,97.43,48.71Z"/><path class="cls-1" d="M48.71,77.07h0a21.54,21.54,0,0,1-16.23-7.16h0a24.62,24.62,0,0,1-4.62-7.16h0a2.45,2.45,0,0,1,1.42-3.14h0A2.44,2.44,0,0,1,32.42,61h0l0,.07h0c0,.07.07.18.14.32h0c.14.3.35.74.65,1.27h0a20.84,20.84,0,0,0,2.83,3.92h0A16.61,16.61,0,0,0,48.71,72.2h0a16.61,16.61,0,0,0,12.4-5.32h0A20.16,20.16,0,0,0,65,61h0a2.44,2.44,0,0,1,3.14-1.42h0a2.43,2.43,0,0,1,1.41,3.14h0a24.12,24.12,0,0,1-4.62,7.16h0a21.53,21.53,0,0,1-16.19,7.16h0Z"/><path class="cls-1" d="M17.46,41.51a2.43,2.43,0,0,1-1.88-2.89h0A15.87,15.87,0,0,1,20,30.41h0A12,12,0,0,1,28.29,27h0a11.88,11.88,0,0,1,8.15,3.34h0a15.76,15.76,0,0,1,4.48,8h0a2.43,2.43,0,0,1-1.82,2.92h0a2.43,2.43,0,0,1-2.92-1.82h0a10.94,10.94,0,0,0-3.06-5.54h0a7.08,7.08,0,0,0-4.83-2h0a7.08,7.08,0,0,0-4.9,2.09h0a11,11,0,0,0-3,5.7h0A2.44,2.44,0,0,1,18,41.56h0a2.21,2.21,0,0,1-.51-.05Z"/><path class="cls-1" d="M58.37,41.51a2.44,2.44,0,0,1-1.88-2.89h0a15.88,15.88,0,0,1,4.45-8.21h0A12,12,0,0,1,69.2,27h0a11.92,11.92,0,0,1,8.16,3.34h0a15.91,15.91,0,0,1,4.48,8h0A2.44,2.44,0,0,1,80,41.23h0a2.43,2.43,0,0,1-2.92-1.82h0A10.87,10.87,0,0,0,74,33.87h0a7.06,7.06,0,0,0-4.83-2h0a7.11,7.11,0,0,0-4.9,2.09h0a11.07,11.07,0,0,0-3,5.7h0a2.43,2.43,0,0,1-2.38,1.93h0a2.21,2.21,0,0,1-.51-.05Z"/></g></g></svg>