<svg xmlns="http://www.w3.org/2000/svg" viewBox="0 0 97.43 97.43"><defs><style>.cls-1{fill:#fff;}</style></defs><g id="Layer_2" data-name="Layer 2"><g id="Layer_1-2" data-name="Layer 1"><path d="M97.43,48.71A48.72,48.72,0,1,1,48.71,0,48.72,48.72,0,0,1,97.43,48.71Z"/><path class="cls-1" d="M31,46.7,15.11,30.8a2.75,2.75,0,0,1,0-3.88h0a2.75,2.75,0,0,1,3.88,0h0l15.9,15.91a2.73,2.73,0,0,1,0,3.87h0a2.7,2.7,0,0,1-1.94.81h0A2.7,2.7,0,0,1,31,46.7Z"/><path class="cls-1" d="M15.11,46.7a2.73,2.73,0,0,1,0-3.87h0L31,26.92a2.73,2.73,0,0,1,3.87,0h0a2.75,2.75,0,0,1,0,3.88h0L19,46.7a2.73,2.73,0,0,1-1.94.81h0a2.73,2.73,0,0,1-1.94-.81Z"/><path class="cls-1" d="M78.44,46.7,62.54,30.8a2.73,2.73,0,0,1,0-3.88h0a2.73,2.73,0,0,1,3.87,0h0L82.32,42.83a2.73,2.73,0,0,1,0,3.87h0a2.73,2.73,0,0,1-1.94.81h0a2.72,2.72,0,0,1-1.94-.81Z"/><path class="cls-1" d="M62.54,46.7a2.72,2.72,0,0,1,0-3.87h0l15.9-15.91a2.75,2.75,0,0,1,3.88,0h0a2.75,2.75,0,0,1,0,3.88h0L66.41,46.7a2.72,2.72,0,0,1-1.94.81h0a2.7,2.7,0,0,1-1.93-.81Z"/><path class="cls-1" d="M59.75,74.71c0,6.72-4.94,12.17-11,12.17s-11-5.45-11-12.17,4.94-12.17,11-12.17S59.75,68,59.75,74.71Z"/><path d="M56.14,67.93a9.08,9.08,0,0,0-14.85,0Z"/></g></g></svg>