<svg xmlns="http://www.w3.org/2000/svg" viewBox="0 0 97.43 97.43"><defs><style>.cls-1{fill:#fff;}</style></defs><g id="Layer_2" data-name="Layer 2"><g id="Layer_1-2" data-name="Layer 1"><path d="M97.43,48.71A48.72,48.72,0,1,1,48.71,0,48.72,48.72,0,0,1,97.43,48.71Z"/><path class="cls-1" d="M23.16,49a3.41,3.41,0,0,1,1.24-4.66h0l9.7-5.6-9.7-5.6h0a3.39,3.39,0,0,1-1.24-4.65h0a3.39,3.39,0,0,1,4.65-1.25h0l14.82,8.55a3.42,3.42,0,0,1,1.7,2.95h0a3.43,3.43,0,0,1-1.7,3h0L27.81,50.2a3.37,3.37,0,0,1-1.7.46h0A3.39,3.39,0,0,1,23.16,49Z"/><path class="cls-1" d="M69.62,50.2,54.8,41.65a3.41,3.41,0,0,1-1.71-3h0a3.41,3.41,0,0,1,1.71-2.95h0l14.82-8.55a3.39,3.39,0,0,1,4.65,1.25h0A3.4,3.4,0,0,1,73,33.09h0l-9.7,5.6L73,44.29A3.41,3.41,0,0,1,74.27,49h0a3.4,3.4,0,0,1-3,1.71h0a3.37,3.37,0,0,1-1.7-.46Z"/><path class="cls-1" d="M31.75,75.2c0-8,7.59-14.51,17-14.51s17,6.5,17,14.51Z"/></g></g></svg>