<svg xmlns="http://www.w3.org/2000/svg" viewBox="0 0 97.43 97.43"><defs><style>.cls-1{fill:#fff;}</style></defs><g id="Layer_2" data-name="Layer 2"><g id="Layer_1-2" data-name="Layer 1"><path d="M97.43,48.71A48.72,48.72,0,1,1,48.71,0,48.72,48.72,0,0,1,97.43,48.71Z"/><path class="cls-1" d="M38.77,35.54c0,5.18-2.88,9.37-6.44,9.37s-6.45-4.19-6.45-9.37,2.89-9.36,6.45-9.36S38.77,30.37,38.77,35.54Z"/><path class="cls-1" d="M71.54,35.54c0,5.18-2.88,9.37-6.44,9.37s-6.45-4.19-6.45-9.37,2.89-9.36,6.45-9.36S71.54,30.37,71.54,35.54Z"/><path class="cls-1" d="M25.9,71.6a2.43,2.43,0,0,1-2.44-2.43h0a2.44,2.44,0,0,1,2.44-2.44H71.53A2.43,2.43,0,0,1,74,69.17h0a2.43,2.43,0,0,1-2.43,2.43H25.9Z"/></g></g></svg>