<svg xmlns="http://www.w3.org/2000/svg" viewBox="0 0 97.43 97.43"><defs><style>.cls-1{fill:#fff;}</style></defs><g id="Layer_2" data-name="Layer 2"><g id="Layer_1-2" data-name="Layer 1"><path d="M97.43,48.71A48.72,48.72,0,1,1,48.71,0,48.72,48.72,0,0,1,97.43,48.71Z"/><path class="cls-1" d="M39.06,35.55c0,4.58-2.81,8.3-6.27,8.3s-6.25-3.72-6.25-8.3,2.8-8.31,6.25-8.31S39.06,31,39.06,35.55Z"/><path class="cls-1" d="M70.9,35.55c0,4.58-2.81,8.3-6.26,8.3s-6.27-3.72-6.27-8.3,2.81-8.31,6.27-8.31S70.9,31,70.9,35.55Z"/><path class="cls-1" d="M48.71,63.41a24.59,24.59,0,0,0-18.27,8.07c-3.87,4.22-5,7.42-5.77,7.75,0-.41.24-4.41,4.08-9.62a25.08,25.08,0,0,1,39.93,0c3.84,5.21,4.08,9.21,4.08,9.62C72,78.9,70.86,75.7,67,71.48A24.6,24.6,0,0,0,48.71,63.41Z"/></g></g></svg>