<svg xmlns="http://www.w3.org/2000/svg" viewBox="0 0 98.37 97.43"><defs><style>.cls-1{fill:#fff;}</style></defs><g id="Layer_2" data-name="Layer 2"><g id="Layer_1-2" data-name="Layer 1"><path d="M97.9,48.71A48.72,48.72,0,1,1,49.19,0,48.71,48.71,0,0,1,97.9,48.71Z"/><path d="M74.15,57a.18.18,0,0,0,0,.07c.18.29.34.58.5.88,0,.06.07.13.11.2s.07.12.1.19c3.83-2.24,7.59-4.6,11.25-7.12s7.57-5,10.69-8.12c-.13-1.11-.3-2.21-.5-3.3-3.38,3.59-7.61,6.21-11.44,8.85s-7.6,5-11.53,7.29l.09.11.14.18C73.8,56.52,74,56.78,74.15,57Z"/><path class="cls-1" d="M98.34,43.32a50.05,50.05,0,0,0-.85-5.21l-.32-1.45-1,1.14c-3.3,3.93-7.87,6.75-12.13,9.69-3.8,2.62-7.71,5.06-11.7,7.38l.41.42c.24.26.46.53.68.8L73.38,56q5.9-3.42,11.53-7.29c3.83-2.64,8.06-5.26,11.44-8.85.2,1.09.37,2.19.5,3.3-3.12,3.14-7,5.59-10.69,8.12s-7.42,4.88-11.25,7.12c0-.07-.07-.13-.1-.19a10.26,10.26,0,0,1,.44,1c.08.19.16.39.23.59C79.39,57.45,83.24,55,87,52.46s7.81-5.12,11.15-8.55l.23-.24Z"/><path class="cls-1" d="M74.7,58c-.16-.3-.32-.59-.5-.88C74.38,57.4,74.54,57.69,74.7,58Z"/><path class="cls-1" d="M74.15,57c-.17-.26-.35-.52-.54-.77C73.8,56.52,74,56.78,74.15,57Z"/><path d="M13.46,48.69C9.64,46.05,5.4,43.43,2,39.84c-.21,1.09-.37,2.19-.5,3.3,3.12,3.14,7,5.59,10.69,8.12s7.41,4.88,11.24,7.12l.1-.19a2.12,2.12,0,0,0,.11-.21c.16-.29.33-.58.51-.86a.41.41,0,0,1,.05-.09c.17-.26.35-.51.54-.76l.13-.17L25,56C21.07,53.7,17.21,51.28,13.46,48.69Z"/><path class="cls-1" d="M23.56,58.19l-.1.19c-3.83-2.24-7.59-4.6-11.24-7.12s-7.57-5-10.69-8.12c.13-1.11.29-2.21.5-3.3,3.37,3.59,7.61,6.21,11.43,8.85S21.07,53.7,25,56l-.09.12c.22-.28.45-.55.68-.81l.42-.42c-4-2.32-7.91-4.76-11.71-7.38C10,44.55,5.46,41.73,2.16,37.8l-1-1.14L.89,38.11A47.53,47.53,0,0,0,0,43.32l0,.34.24.25c3.33,3.43,7.43,6,11.15,8.55s7.59,5,11.5,7.27c.08-.2.15-.4.23-.59S23.41,58.5,23.56,58.19Z"/><path class="cls-1" d="M24.77,56.27c-.19.25-.37.5-.54.76C24.4,56.77,24.58,56.52,24.77,56.27Z"/><path class="cls-1" d="M24.18,57.12c-.18.28-.35.57-.51.86C23.83,57.69,24,57.4,24.18,57.12Z"/><path d="M79.81,85.65c.75-.62,1.49-1.28,2.21-2-2.4-1.55-4.85-3-7.32-4.47l-.12.21-.11.18q-.25.45-.54.87l-.05.07c-.19.27-.39.52-.59.77l-.11.14-.09.11C75.36,82.89,77.6,84.24,79.81,85.65Z"/><path class="cls-1" d="M74.58,79.44l.12-.21c2.47,1.43,4.92,2.92,7.32,4.47-.72.67-1.46,1.33-2.21,2-2.21-1.41-4.45-2.76-6.72-4.07l.09-.11c-.23.27-.48.54-.73.8l-.41.39c2.51,1.45,5,2.94,7.43,4.51l.44.28.41-.33q1.75-1.43,3.38-3l.65-.64-.76-.5c-2.71-1.77-5.48-3.46-8.27-5.08-.08.2-.17.41-.26.61S74.75,79.14,74.58,79.44Z"/><path class="cls-1" d="M73.93,80.49q.28-.42.54-.87Q74.22,80.07,73.93,80.49Z"/><path class="cls-1" d="M73.29,81.33c.2-.25.4-.5.59-.77C73.69,80.83,73.49,81.08,73.29,81.33Z"/><path d="M16.36,83.7c.71.67,1.45,1.33,2.2,2,2.22-1.41,4.46-2.76,6.72-4.07a.76.76,0,0,0-.08-.11l-.13-.15c-.19-.24-.38-.49-.56-.74,0,0-.05-.06-.07-.1a9.29,9.29,0,0,1-.53-.85l-.12-.2-.12-.2Q20,81.38,16.36,83.7Z"/><path class="cls-1" d="M25.2,81.47a.76.76,0,0,1,.08.11c-2.26,1.31-4.5,2.66-6.72,4.07-.75-.62-1.49-1.28-2.2-2q3.6-2.33,7.31-4.47l.12.2c-.17-.3-.33-.61-.47-.92s-.18-.41-.26-.61q-4.2,2.43-8.27,5.08l-.77.5.66.64c1.07,1,2.2,2,3.37,3l.41.33.45-.28q3.66-2.34,7.43-4.51l-.41-.39C25.67,82,25.43,81.75,25.2,81.47Z"/><path class="cls-1" d="M24.51,80.58c.18.25.37.5.56.74C24.88,81.08,24.69,80.83,24.51,80.58Z"/><path class="cls-1" d="M23.91,79.63a9.29,9.29,0,0,0,.53.85A9.29,9.29,0,0,1,23.91,79.63Z"/><path d="M71.72,56.28a11.43,11.43,0,0,0-8.41-3.67H35.06a11.4,11.4,0,0,0-8.4,3.67,11.41,11.41,0,0,0-3.05,7.78v9.09A11.47,11.47,0,0,0,35.06,84.6H63.31A11.45,11.45,0,0,0,74.76,73.15V64.06a11.45,11.45,0,0,0-.86-4.36A11.66,11.66,0,0,0,71.72,56.28Z"/><path class="cls-1" d="M74.81,58.19c0-.07-.07-.14-.11-.2-.16-.3-.32-.59-.5-.88a.18.18,0,0,1,0-.07c-.17-.26-.35-.52-.54-.77l-.14-.18c-.22-.27-.44-.54-.68-.8l-.41-.42a12.82,12.82,0,0,0-9.07-3.72H35.06A12.81,12.81,0,0,0,26,54.87l-.42.42c-.23.26-.46.53-.68.81l-.13.17c-.19.25-.37.5-.54.76a.41.41,0,0,0-.05.09c-.18.28-.35.57-.51.86a2.12,2.12,0,0,1-.11.21c-.15.31-.3.62-.44,1s-.15.39-.23.59a12.91,12.91,0,0,0-.74,4.33v9.09a12.71,12.71,0,0,0,.91,4.75c.08.2.16.41.26.61s.3.62.47.92l.12.2a9.29,9.29,0,0,0,.53.85s0,.06.07.1c.18.25.37.5.56.74l.13.15c.23.28.47.54.73.8l.41.39a12.84,12.84,0,0,0,8.72,3.4H63.31A12.86,12.86,0,0,0,72,82.66l.41-.39c.25-.26.5-.53.73-.8l.11-.14c.2-.25.4-.5.59-.77l.05-.07q.28-.42.54-.87l.11-.18q.26-.45.48-.93c.09-.2.18-.41.26-.61a12.94,12.94,0,0,0,.9-4.75V64.06a12.91,12.91,0,0,0-.74-4.33c-.07-.2-.15-.4-.23-.59A10.26,10.26,0,0,0,74.81,58.19Zm0,15A11.45,11.45,0,0,1,63.31,84.6H35.06A11.39,11.39,0,0,1,27,81.23a11.48,11.48,0,0,1-3.35-8.08V64.06A11.45,11.45,0,0,1,35.06,52.61H63.31a11.43,11.43,0,0,1,8.41,3.67A11.66,11.66,0,0,1,73.9,59.7a11.45,11.45,0,0,1,.86,4.36Z"/><path class="cls-1" d="M58.05,38.43c.87-.1,4.72,4.64,11.2,4.73,6.76.1,9.12-3.59,11.28-3.61.42.55-1.57,8.71-10.43,9C61.55,48.74,57.41,40.48,58.05,38.43Z"/><path class="cls-1" d="M40.33,38.43c-.88-.1-4.72,4.64-11.2,4.73-6.76.1-9.12-3.59-11.28-3.61-.42.55,1.57,8.71,10.43,9C36.83,48.74,41,40.48,40.33,38.43Z"/><path class="cls-1" d="M14.38,31.7c1.12-2.61,4.46-6.83,10.38-9.22s10-1.59,10-2.48c0-1.13-5.22-3.12-11.9.25C15.58,23.91,14.25,29.56,14.38,31.7Z"/><path class="cls-1" d="M84,31.7c-1.12-2.61-4.46-6.83-10.38-9.22s-10-1.59-10-2.48c0-1.13,5.22-3.12,11.9.25C82.79,23.91,84.13,29.56,84,31.7Z"/></g></g></svg>