<svg xmlns="http://www.w3.org/2000/svg" viewBox="0 0 97.43 97.43"><defs><style>.cls-1{fill:#fff;}</style></defs><g id="Layer_2" data-name="Layer 2"><g id="Layer_1-2" data-name="Layer 1"><path d="M97.43,48.71A48.72,48.72,0,1,1,48.71,0,48.72,48.72,0,0,1,97.43,48.71Z"/><path class="cls-1" d="M21.75,50.11,33,43.61,21.75,37.1h0l2.56-4.44,15.11,8.73a2.57,2.57,0,0,1,1.28,2.22h0a2.56,2.56,0,0,1-1.28,2.21h0L24.31,54.54l-2.56-4.43Z"/><path class="cls-1" d="M58,45.82a2.54,2.54,0,0,1-1.28-2.21h0A2.55,2.55,0,0,1,58,41.39h0l15.11-8.73,2.55,4.43L64.4,43.6l11.27,6.52-2.55,4.42L58,45.82Z"/><path class="cls-1" d="M48.71,76.16h0a2.55,2.55,0,0,1-2-.92l-6.16-7.38-6.15,7.38a2.56,2.56,0,0,1-3.93,0L22.39,65.5l2.52-1.92,7.56,6.27,6.16-7.63a2.55,2.55,0,0,1,2-.92,2.58,2.58,0,0,1,2,.92l6.15,7.39h0l6.16-7.39a2.56,2.56,0,0,1,3.93,0L65,69.85l7.56-6.27L75,65.5l-8.11,9.74a2.58,2.58,0,0,1-2,.92,2.55,2.55,0,0,1-2-.92l-6.16-7.38-6.15,7.38a2.57,2.57,0,0,1-2,.92ZM75,65.5Zm-52.65,0Z"/></g></g></svg>