<svg xmlns="http://www.w3.org/2000/svg" viewBox="0 0 97.43 97.43"><defs><style>.cls-1{fill:#fff;}</style></defs><g id="Layer_2" data-name="Layer 2"><g id="Layer_1-2" data-name="Layer 1"><path d="M97.43,48.71A48.72,48.72,0,1,1,48.71,0,48.72,48.72,0,0,1,97.43,48.71Z"/><path class="cls-1" d="M25.9,71.6a2.44,2.44,0,0,1-2.44-2.44h0a2.43,2.43,0,0,1,2.44-2.43H71.53A2.43,2.43,0,0,1,74,69.16h0a2.43,2.43,0,0,1-2.43,2.44H25.9Z"/><path class="cls-1" d="M18,41.08a2.43,2.43,0,0,1-2.44-2.43h0A2.44,2.44,0,0,1,18,36.21h20.2a2.44,2.44,0,0,1,2.44,2.44h0a2.43,2.43,0,0,1-2.44,2.43H18Z"/><path class="cls-1" d="M59.28,41.08a2.43,2.43,0,0,1-2.44-2.43h0a2.44,2.44,0,0,1,2.44-2.44h20.2a2.43,2.43,0,0,1,2.43,2.44h0a2.43,2.43,0,0,1-2.43,2.43H59.28Z"/></g></g></svg>